<svg xmlns="http://www.w3.org/2000/svg" width="375" viewBox="0 0 375 375" height="375" version="1.0"><defs><clipPath id="a"><path d="M 95.992188 88.167969 L 278.992188 88.167969 L 278.992188 154.167969 L 95.992188 154.167969 Z M 95.992188 88.167969"/></clipPath><clipPath id="b"><path d="M 95.992188 211.875 L 278.992188 211.875 L 278.992188 277.6875 L 95.992188 277.6875 Z M 95.992188 211.875"/></clipPath></defs><g clip-path="url(#a)"><path d="M 187.492188 88.1875 C 214.140625 88.1875 238.261719 99.019531 255.722656 116.53125 C 266.148438 126.984375 274.199219 139.820312 278.992188 154.15625 L 277.585938 154.15625 C 272.839844 140.191406 264.960938 127.683594 254.78125 117.476562 C 237.5625 100.207031 213.769531 89.523438 187.492188 89.523438 C 161.214844 89.523438 137.421875 100.207031 120.203125 117.476562 C 110.027344 127.683594 102.144531 140.191406 97.398438 154.15625 L 95.992188 154.15625 C 100.789062 139.824219 108.839844 126.988281 119.261719 116.53125 C 136.722656 99.019531 160.847656 88.1875 187.492188 88.1875 Z M 187.492188 88.1875" fill-rule="evenodd"/></g><g clip-path="url(#b)"><path d="M 187.492188 277.667969 C 214.140625 277.667969 238.261719 266.835938 255.722656 249.324219 C 266.148438 238.871094 274.199219 226.035156 278.992188 211.699219 L 277.585938 211.699219 C 272.839844 225.664062 264.960938 238.171875 254.78125 248.378906 C 237.5625 265.648438 213.769531 276.332031 187.492188 276.332031 C 161.214844 276.332031 137.421875 265.648438 120.203125 248.378906 C 110.027344 238.171875 102.144531 225.664062 97.398438 211.699219 L 95.992188 211.699219 C 100.789062 226.03125 108.839844 238.867188 119.261719 249.324219 C 136.722656 266.835938 160.847656 277.667969 187.492188 277.667969 Z M 187.492188 277.667969" fill-rule="evenodd"/></g><g><g><g><path d="M -3.53125 -7.59375 L -3.109375 -8.0625 L 4.75 -5.375 L 4.21875 -4.78125 L 1.734375 -5.625 L -0.546875 -3.03125 L 0.625 -0.703125 L 0.078125 -0.09375 Z M 1.1875 -5.890625 L -2.671875 -7.25 L -0.859375 -3.5625 Z M 1.1875 -5.890625" transform="translate(138.536 151.48)"/></g></g></g><g><g><g><path d="M 0.75 -0.609375 L -4.03125 -6.609375 L -1.5 -8.625 C -1.238281 -8.832031 -0.953125 -8.96875 -0.640625 -9.03125 C -0.335938 -9.09375 -0.0390625 -9.097656 0.25 -9.046875 C 0.539062 -8.992188 0.820312 -8.890625 1.09375 -8.734375 C 1.363281 -8.578125 1.59375 -8.382812 1.78125 -8.15625 C 1.957031 -7.9375 2.09375 -7.703125 2.1875 -7.453125 C 2.28125 -7.203125 2.332031 -6.945312 2.34375 -6.6875 C 2.351562 -6.4375 2.320312 -6.191406 2.25 -5.953125 C 2.175781 -5.710938 2.050781 -5.492188 1.875 -5.296875 L 5.203125 -4.15625 L 4.53125 -3.609375 L 1.34375 -4.703125 L -0.421875 -3.296875 L 1.34375 -1.078125 Z M -0.84375 -3.8125 L 1.125 -5.375 C 1.289062 -5.507812 1.414062 -5.671875 1.5 -5.859375 C 1.582031 -6.054688 1.625 -6.257812 1.625 -6.46875 C 1.625 -6.675781 1.585938 -6.882812 1.515625 -7.09375 C 1.441406 -7.300781 1.332031 -7.492188 1.1875 -7.671875 C 1.039062 -7.859375 0.867188 -8.007812 0.671875 -8.125 C 0.484375 -8.238281 0.285156 -8.3125 0.078125 -8.34375 C -0.128906 -8.375 -0.335938 -8.363281 -0.546875 -8.3125 C -0.753906 -8.269531 -0.941406 -8.1875 -1.109375 -8.0625 L -3.015625 -6.546875 Z M -0.84375 -3.8125" transform="translate(146.077 143.436)"/></g></g></g><g><g><g><path d="M 5.09375 -3.515625 C 4.945312 -3.160156 4.75 -2.84375 4.5 -2.5625 C 4.25 -2.289062 3.945312 -2.0625 3.59375 -1.875 C 3.113281 -1.613281 2.628906 -1.472656 2.140625 -1.453125 C 1.648438 -1.441406 1.175781 -1.519531 0.71875 -1.6875 C 0.269531 -1.863281 -0.132812 -2.117188 -0.5 -2.453125 C -0.875 -2.785156 -1.175781 -3.171875 -1.40625 -3.609375 C -1.644531 -4.054688 -1.796875 -4.523438 -1.859375 -5.015625 C -1.929688 -5.515625 -1.90625 -6 -1.78125 -6.46875 C -1.664062 -6.945312 -1.460938 -7.382812 -1.171875 -7.78125 C -0.890625 -8.175781 -0.523438 -8.492188 -0.078125 -8.734375 C 0.390625 -8.984375 0.875 -9.113281 1.375 -9.125 C 1.882812 -9.132812 2.363281 -9.050781 2.8125 -8.875 C 3.257812 -8.707031 3.664062 -8.457031 4.03125 -8.125 C 4.40625 -7.789062 4.707031 -7.414062 4.9375 -7 C 5.1875 -6.53125 5.335938 -6.039062 5.390625 -5.53125 C 5.441406 -5.019531 5.40625 -4.53125 5.28125 -4.0625 L 6.59375 -3.53125 L 5.9375 -3.1875 Z M 3.28125 -2.46875 C 3.5625 -2.625 3.796875 -2.8125 3.984375 -3.03125 C 4.179688 -3.25 4.335938 -3.492188 4.453125 -3.765625 L 3.078125 -4.328125 L 3.734375 -4.671875 L 4.625 -4.328125 C 4.695312 -4.703125 4.703125 -5.085938 4.640625 -5.484375 C 4.578125 -5.890625 4.453125 -6.273438 4.265625 -6.640625 C 4.066406 -7.003906 3.816406 -7.320312 3.515625 -7.59375 C 3.210938 -7.875 2.878906 -8.082031 2.515625 -8.21875 C 2.148438 -8.363281 1.769531 -8.429688 1.375 -8.421875 C 0.988281 -8.421875 0.613281 -8.320312 0.25 -8.125 C -0.132812 -7.914062 -0.441406 -7.648438 -0.671875 -7.328125 C -0.898438 -7.003906 -1.046875 -6.648438 -1.109375 -6.265625 C -1.179688 -5.878906 -1.179688 -5.484375 -1.109375 -5.078125 C -1.046875 -4.679688 -0.921875 -4.3125 -0.734375 -3.96875 C -0.535156 -3.601562 -0.285156 -3.273438 0.015625 -2.984375 C 0.316406 -2.703125 0.644531 -2.488281 1 -2.34375 C 1.363281 -2.207031 1.738281 -2.140625 2.125 -2.140625 C 2.519531 -2.148438 2.90625 -2.257812 3.28125 -2.46875 Z M 3.28125 -2.46875" transform="translate(154.668 136.951)"/></g></g></g><g><g><g><path d="M 3.703125 -1.8125 C 4.160156 -1.957031 4.515625 -2.164062 4.765625 -2.4375 C 5.023438 -2.707031 5.203125 -3.015625 5.296875 -3.359375 C 5.390625 -3.703125 5.414062 -4.066406 5.375 -4.453125 C 5.332031 -4.835938 5.25 -5.21875 5.125 -5.59375 L 3.984375 -9.28125 L 4.703125 -9.515625 L 5.84375 -5.828125 C 6 -5.328125 6.09375 -4.832031 6.125 -4.34375 C 6.15625 -3.863281 6.097656 -3.414062 5.953125 -3 C 5.816406 -2.59375 5.582031 -2.226562 5.25 -1.90625 C 4.925781 -1.59375 4.484375 -1.347656 3.921875 -1.171875 C 3.335938 -0.992188 2.8125 -0.945312 2.34375 -1.03125 C 1.882812 -1.113281 1.484375 -1.285156 1.140625 -1.546875 C 0.796875 -1.816406 0.5 -2.15625 0.25 -2.5625 C 0.0078125 -2.976562 -0.179688 -3.421875 -0.328125 -3.890625 L -1.46875 -7.578125 L -0.765625 -7.796875 L 0.375 -4.109375 C 0.5 -3.722656 0.660156 -3.359375 0.859375 -3.015625 C 1.054688 -2.671875 1.285156 -2.390625 1.546875 -2.171875 C 1.816406 -1.953125 2.128906 -1.800781 2.484375 -1.71875 C 2.835938 -1.632812 3.242188 -1.664062 3.703125 -1.8125 Z M 3.703125 -1.8125" transform="translate(165.2 131.695)"/></g></g></g><g><g><g><path d="M 0.953125 -0.15625 L -0.234375 -7.734375 L 0.515625 -7.84375 L 1.703125 -0.265625 Z M 0.953125 -0.15625" transform="translate(176.754 128.593)"/></g></g></g><g><g><g><path d="M 6.28125 -7.109375 L 3.546875 -7.0625 L 3.671875 -0.0625 L 2.921875 -0.046875 L 2.796875 -7.046875 L 0.0625 -7 L 0.046875 -7.671875 L 6.265625 -7.78125 Z M 6.28125 -7.109375" transform="translate(183.231 127.714)"/></g></g></g><g><g><g><path d="M 6.15625 0.234375 L 6.0625 0.90625 L 0.953125 0.140625 L 2.078125 -7.453125 L 7.078125 -6.703125 L 6.984375 -6.03125 L 2.734375 -6.671875 L 2.328125 -3.9375 L 6.03125 -3.375 L 5.9375 -2.734375 L 2.234375 -3.296875 L 1.796875 -0.421875 Z M 6.15625 0.234375" transform="translate(193.575 127.836)"/></g></g></g><g><g><g><path d="M 8.25 -4.671875 L 5.65625 -5.515625 L 3.5 1.140625 L 2.78125 0.90625 L 4.9375 -5.75 L 2.328125 -6.59375 L 2.546875 -7.234375 L 8.46875 -5.3125 Z M 8.25 -4.671875" transform="translate(203.746 129.664)"/></g></g></g><g><g><g><path d="M 3.890625 1.375 C 4.316406 1.601562 4.710938 1.710938 5.078125 1.703125 C 5.441406 1.691406 5.78125 1.597656 6.09375 1.421875 C 6.414062 1.253906 6.695312 1.015625 6.9375 0.703125 C 7.175781 0.398438 7.390625 0.078125 7.578125 -0.265625 L 9.40625 -3.671875 L 10.078125 -3.3125 L 8.25 0.09375 C 8.007812 0.550781 7.722656 0.957031 7.390625 1.3125 C 7.066406 1.675781 6.707031 1.945312 6.3125 2.125 C 5.925781 2.3125 5.503906 2.398438 5.046875 2.390625 C 4.585938 2.390625 4.101562 2.253906 3.59375 1.984375 C 3.050781 1.691406 2.644531 1.351562 2.375 0.96875 C 2.113281 0.582031 1.957031 0.171875 1.90625 -0.265625 C 1.851562 -0.710938 1.890625 -1.164062 2.015625 -1.625 C 2.140625 -2.082031 2.316406 -2.523438 2.546875 -2.953125 L 4.375 -6.359375 L 5.03125 -6.015625 L 3.203125 -2.609375 C 3.015625 -2.253906 2.863281 -1.882812 2.75 -1.5 C 2.644531 -1.113281 2.601562 -0.75 2.625 -0.40625 C 2.65625 -0.0625 2.769531 0.265625 2.96875 0.578125 C 3.164062 0.890625 3.472656 1.15625 3.890625 1.375 Z M 3.890625 1.375" transform="translate(213.469 133.093)"/></g></g></g><g><g><g><path d="M 0.75 0.609375 L 5.53125 -5.390625 L 8.0625 -3.375 C 8.320312 -3.164062 8.515625 -2.921875 8.640625 -2.640625 C 8.773438 -2.359375 8.851562 -2.066406 8.875 -1.765625 C 8.894531 -1.460938 8.859375 -1.160156 8.765625 -0.859375 C 8.671875 -0.554688 8.53125 -0.289062 8.34375 -0.0625 C 8.164062 0.15625 7.96875 0.335938 7.75 0.484375 C 7.53125 0.628906 7.296875 0.734375 7.046875 0.796875 C 6.796875 0.867188 6.546875 0.894531 6.296875 0.875 C 6.046875 0.851562 5.800781 0.773438 5.5625 0.640625 L 5.203125 4.15625 L 4.53125 3.609375 L 4.875 0.265625 L 3.109375 -1.140625 L 1.34375 1.078125 Z M 3.53125 -1.65625 L 5.5 -0.09375 C 5.664062 0.0390625 5.851562 0.125 6.0625 0.15625 C 6.269531 0.195312 6.472656 0.191406 6.671875 0.140625 C 6.867188 0.0859375 7.0625 0.00390625 7.25 -0.109375 C 7.4375 -0.222656 7.601562 -0.367188 7.75 -0.546875 C 7.894531 -0.734375 8 -0.9375 8.0625 -1.15625 C 8.132812 -1.375 8.164062 -1.585938 8.15625 -1.796875 C 8.144531 -2.003906 8.09375 -2.203125 8 -2.390625 C 7.90625 -2.585938 7.773438 -2.75 7.609375 -2.875 L 5.703125 -4.390625 Z M 3.53125 -1.65625" transform="translate(223.735 139.028)"/></g></g></g><g><g><g><path d="M 7.96875 -2.5625 L 8.390625 -2.09375 L 4.75 5.375 L 4.21875 4.78125 L 5.359375 2.4375 L 3.078125 -0.15625 L 0.625 0.703125 L 0.078125 0.09375 Z M 5.6875 1.921875 L 7.515625 -1.75 L 3.640625 -0.40625 Z M 5.6875 1.921875" transform="translate(231.962 145.995)"/></g></g></g><g><g><g><path d="M 4.65625 2.210938 C 3.433594 2.40625 2.328125 2.917969 1.460938 3.828125 C 0.59375 4.734375 0.671875 5.722656 1.695312 6.511719 C 2.171875 6.867188 2.722656 7.101562 3.273438 7.261719 C 4.65625 7.617188 5.996094 7.535156 7.339844 7.179688 C 9.785156 6.589844 11.875 5.289062 13.847656 3.789062 C 14.164062 3.550781 14.480469 3.472656 14.875 3.589844 C 15.902344 3.867188 16.925781 4.144531 17.953125 4.417969 C 21.976562 5.40625 26.003906 6.273438 30.183594 5.917969 C 32.355469 5.761719 34.523438 5.328125 36.65625 4.851562 C 41.507812 3.789062 45.691406 1.5 49.203125 -2.011719 C 50.425781 -3.234375 51.492188 -4.65625 52.753906 -5.839844 C 52.875 -5.957031 53.148438 -6.117188 52.953125 -6.3125 C 52.792969 -6.550781 52.476562 -6.550781 52.242188 -6.351562 C 51.964844 -6.15625 51.730469 -5.957031 51.492188 -5.722656 C 49.992188 -4.222656 48.335938 -2.960938 46.71875 -1.65625 C 43.480469 0.90625 39.851562 2.761719 35.828125 3.710938 C 32.472656 4.539062 29.039062 5.246094 25.527344 4.851562 C 22.804688 4.578125 20.164062 4.0625 17.558594 3.355469 C 16.808594 3.15625 16.097656 2.960938 15.230469 2.722656 C 17.359375 1.027344 19.175781 -0.828125 20.832031 -2.761719 C 25.527344 -8.285156 29.515625 -14.324219 32.988281 -20.675781 C 35.867188 -26.003906 39.023438 -31.171875 42.773438 -35.945312 C 43.875 -37.367188 45.058594 -38.746094 46.285156 -40.246094 C 46.324219 -39.851562 46.125 -39.695312 46.007812 -39.457031 C 45.414062 -38.234375 44.746094 -37.011719 44.429688 -35.628906 C 44.351562 -35.472656 44.269531 -35.234375 44.546875 -35.15625 C 44.785156 -35.078125 44.980469 -35.078125 45.101562 -35.316406 C 45.335938 -35.789062 45.613281 -36.222656 45.851562 -36.65625 C 47.269531 -39.378906 48.730469 -42.0625 50.664062 -44.429688 C 50.859375 -44.625 51.292969 -44.824219 51.058594 -45.179688 C 50.859375 -45.496094 50.425781 -45.496094 50.070312 -45.496094 C 49.597656 -45.496094 49.320312 -45.21875 49.046875 -44.902344 C 48.414062 -44.230469 47.664062 -43.640625 46.992188 -43.046875 C 46.285156 -42.457031 45.613281 -41.785156 44.980469 -41.113281 C 40.246094 -35.867188 36.378906 -29.988281 32.867188 -23.832031 C 29.515625 -17.992188 25.964844 -12.269531 21.664062 -7.0625 C 19.175781 -3.984375 16.691406 -0.90625 13.691406 1.734375 C 13.257812 2.128906 12.863281 2.25 12.269531 2.171875 C 9.746094 1.734375 7.179688 1.734375 4.65625 2.210938 Z M 11.5625 2.917969 C 11.679688 2.960938 11.796875 3 12.035156 3.039062 C 9.941406 4.578125 7.890625 5.839844 5.484375 6.390625 C 4.8125 6.511719 4.144531 6.628906 3.472656 6.3125 C 2.605469 5.878906 2.445312 5.128906 3.117188 4.378906 C 3.789062 3.667969 4.65625 3.273438 5.601562 3.078125 C 7.574219 2.761719 9.589844 2.683594 11.5625 2.917969 Z M 11.5625 2.917969" transform="translate(73.352 203.342)"/></g></g></g><g><g><g><path d="M 13.574219 -12.429688 C 12.902344 -12.824219 12.429688 -12.863281 11.796875 -12.390625 C 9.941406 -10.929688 8.285156 -9.273438 6.746094 -7.496094 C 5.722656 -6.273438 4.933594 -4.894531 3.90625 -3.667969 C 3.15625 -2.800781 2.484375 -1.933594 1.617188 -1.183594 C 1.105469 -0.789062 0.988281 -0.867188 0.867188 -1.5 C 0.828125 -1.972656 0.828125 -2.40625 0.90625 -2.878906 C 1.183594 -4.5 1.695312 -5.996094 2.445312 -7.457031 C 2.917969 -8.363281 3.472656 -9.195312 3.945312 -10.0625 C 4.339844 -10.734375 4.183594 -11.007812 3.433594 -11.128906 C 2.800781 -11.207031 2.25 -11.046875 1.777344 -10.535156 C 0.0390625 -8.640625 -0.828125 -6.390625 -1.183594 -3.867188 C -1.300781 -3.234375 -1.261719 -2.605469 -1.144531 -1.972656 C -0.90625 -0.789062 -0.117188 -0.117188 1.105469 -0.078125 C 1.734375 -0.0390625 2.289062 -0.238281 2.800781 -0.671875 C 3.433594 -1.222656 3.984375 -1.894531 4.617188 -2.605469 C 4.65625 -2.40625 4.695312 -2.367188 4.65625 -2.289062 C 4.578125 -2.050781 4.5 -1.855469 4.417969 -1.617188 C 3.511719 0.671875 2.878906 3.039062 2.761719 5.484375 C 2.644531 7.261719 2.878906 8.957031 3.710938 10.535156 C 4.105469 11.246094 4.578125 11.835938 5.328125 12.113281 C 5.484375 12.191406 5.683594 12.351562 5.800781 12.152344 C 5.957031 11.957031 5.800781 11.796875 5.640625 11.679688 C 5.089844 11.285156 4.933594 10.652344 4.734375 10.023438 C 4.183594 8.167969 4.222656 6.3125 4.578125 4.417969 C 5.246094 1.066406 6.550781 -2.011719 8.246094 -4.933594 C 9.707031 -7.457031 11.402344 -9.785156 13.574219 -11.757812 C 13.890625 -12.035156 13.929688 -12.191406 13.574219 -12.429688 Z M 13.574219 -12.429688" transform="translate(124.37 203.342)"/></g></g></g><g><g><g><path d="M 28.292969 -6.785156 C 28.09375 -6.707031 27.9375 -6.550781 27.777344 -6.429688 C 26.988281 -5.722656 26.160156 -5.011719 25.332031 -4.339844 C 23.753906 -3.039062 22.097656 -1.777344 20.28125 -0.710938 C 17.046875 1.300781 13.453125 2.523438 9.824219 3.550781 C 7.457031 4.222656 5.089844 4.894531 2.960938 6.078125 C 2.40625 6.351562 1.894531 6.667969 1.339844 6.945312 C 1.339844 6.824219 1.300781 6.785156 1.339844 6.746094 C 1.382812 6.589844 1.460938 6.472656 1.539062 6.351562 C 4.578125 1.972656 8.089844 -1.972656 11.875 -5.640625 C 12.46875 -6.195312 12.980469 -6.945312 13.730469 -7.261719 C 14.519531 -7.574219 15.429688 -7.300781 16.296875 -7.261719 C 16.453125 -7.261719 16.730469 -7.140625 16.808594 -7.457031 C 16.257812 -8.089844 15.347656 -7.695312 14.640625 -8.207031 C 15.703125 -9.113281 16.691406 -9.984375 17.714844 -10.8125 C 19.136719 -11.957031 20.597656 -13.058594 22.058594 -14.164062 C 22.492188 -14.519531 22.53125 -14.679688 22.175781 -15.113281 C 21.976562 -15.429688 21.664062 -15.546875 21.308594 -15.507812 C 21.109375 -15.507812 20.914062 -15.429688 20.714844 -15.386719 C 17.558594 -14.597656 14.363281 -14.007812 11.128906 -13.929688 C 9.667969 -13.890625 8.167969 -13.929688 6.707031 -13.691406 C 5.167969 -13.414062 3.828125 -12.785156 2.683594 -11.679688 C 2.25 -11.246094 1.855469 -10.773438 1.617188 -10.21875 C 1.460938 -9.824219 1.65625 -9.507812 2.171875 -9.351562 C 2.484375 -9.234375 2.761719 -9.273438 2.800781 -9.707031 C 2.878906 -10.101562 3.117188 -10.378906 3.355469 -10.613281 C 4.339844 -11.679688 5.484375 -12.429688 6.945312 -12.746094 C 8.285156 -13.019531 9.667969 -13.058594 11.046875 -13.058594 C 13.652344 -13.101562 16.296875 -13.140625 18.859375 -13.890625 C 18.941406 -13.929688 19.019531 -13.929688 19.097656 -13.808594 C 19.058594 -13.574219 18.820312 -13.496094 18.664062 -13.375 C 16.808594 -11.996094 15.035156 -10.457031 13.296875 -8.917969 C 12.707031 -8.363281 12.113281 -8.050781 11.285156 -8.089844 C 10.417969 -8.128906 9.507812 -8.089844 8.679688 -7.734375 C 8.445312 -7.617188 8.050781 -7.574219 8.207031 -7.179688 C 8.285156 -6.90625 8.601562 -6.824219 8.878906 -6.867188 C 9.113281 -6.90625 9.351562 -6.984375 9.589844 -7.0625 C 10.101562 -7.222656 10.652344 -7.339844 11.246094 -7.261719 C 11.167969 -6.867188 10.929688 -6.746094 10.773438 -6.589844 C 7.890625 -3.667969 5.050781 -0.789062 2.605469 2.445312 C 0.355469 5.367188 -1.65625 8.40625 -3.589844 11.523438 C -3.945312 12.152344 -4.457031 12.746094 -4.773438 13.375 C -4.972656 13.769531 -4.894531 14.007812 -4.539062 14.203125 C -4.0625 14.519531 -3.75 14.480469 -3.394531 13.96875 C -3.15625 13.652344 -2.960938 13.335938 -2.722656 12.980469 C -2.367188 12.429688 -2.050781 11.796875 -1.617188 11.324219 C 0.433594 9.074219 2.839844 7.339844 5.601562 6.117188 C 8.050781 5.050781 10.652344 4.417969 13.179688 3.550781 C 16.136719 2.523438 19.058594 1.339844 21.703125 -0.394531 C 23.242188 -1.339844 24.582031 -2.523438 26.003906 -3.667969 C 26.988281 -4.457031 27.9375 -5.289062 28.804688 -6.15625 C 28.921875 -6.273438 29.082031 -6.429688 28.960938 -6.628906 C 28.765625 -6.867188 28.527344 -6.945312 28.292969 -6.785156 Z M 28.292969 -6.785156" transform="translate(139.955 203.342)"/></g></g></g><g><g><g><path d="M 0.75 8.523438 C 1.261719 8.917969 1.855469 9.152344 2.523438 9.273438 C 3.867188 9.589844 5.246094 9.507812 6.628906 9.273438 C 11.441406 8.445312 15.941406 6.628906 20.242188 4.378906 C 20.597656 4.222656 20.953125 4.0625 21.347656 4.0625 C 24.542969 3.867188 27.621094 3.078125 30.617188 2.011719 C 33.972656 0.828125 37.011719 -0.90625 39.574219 -3.511719 C 41.074219 -5.050781 42.296875 -6.867188 43.917969 -8.363281 C 44.191406 -8.640625 43.917969 -8.757812 43.71875 -8.839844 C 43.207031 -9.035156 42.890625 -8.71875 42.574219 -8.445312 C 41.507812 -7.417969 40.445312 -6.351562 39.378906 -5.328125 C 35.472656 -1.5 30.855469 1.066406 25.527344 2.25 C 24.898438 2.367188 24.226562 2.523438 23.515625 2.683594 C 23.753906 2.289062 24.070312 2.171875 24.34375 1.972656 C 25.882812 0.988281 27.34375 -0.078125 28.765625 -1.222656 C 37.128906 -7.8125 43.640625 -15.824219 47.347656 -25.882812 C 48.886719 -29.988281 50.152344 -34.171875 49.914062 -38.667969 C 49.757812 -41.628906 49.164062 -44.46875 47.074219 -46.757812 C 44.902344 -49.125 42.257812 -50.625 39.101562 -51.175781 C 35.078125 -51.925781 31.289062 -50.941406 27.699219 -49.203125 C 20.476562 -45.652344 15.429688 -39.96875 11.875 -32.828125 C 9.035156 -27.105469 8.484375 -21.148438 9.941406 -14.992188 C 11.046875 -10.335938 13.730469 -6.707031 18.070312 -4.457031 C 19.414062 -3.789062 20.792969 -3.433594 22.410156 -3.667969 C 21.9375 -4.0625 21.9375 -4.0625 21.503906 -4.105469 C 19.925781 -4.300781 18.503906 -4.851562 17.203125 -5.800781 C 14.992188 -7.417969 13.375 -9.507812 12.351562 -12.035156 C 10.140625 -17.441406 10.101562 -22.964844 11.835938 -28.449219 C 13.808594 -34.800781 17.714844 -40.011719 22.847656 -44.191406 C 26.238281 -46.992188 30.027344 -49.046875 34.367188 -49.914062 C 37.207031 -50.503906 40.011719 -50.425781 42.613281 -49.007812 C 46.125 -47.074219 47.507812 -43.875 47.742188 -40.011719 C 47.980469 -35.945312 47.113281 -32 45.769531 -28.210938 C 40.957031 -14.597656 31.683594 -4.65625 19.609375 2.839844 C 19.292969 3.078125 18.941406 3.117188 18.546875 3.15625 C 16.097656 3.234375 13.691406 2.960938 11.246094 2.878906 C 8.363281 2.839844 5.5625 3 2.839844 4.0625 C 1.816406 4.5 0.90625 5.128906 0.316406 6.078125 C -0.277344 7.023438 -0.117188 7.851562 0.75 8.523438 Z M 1.617188 6.90625 C 2.089844 5.996094 2.878906 5.445312 3.789062 5.011719 C 4.695312 4.617188 5.640625 4.339844 6.628906 4.183594 C 10.023438 3.550781 13.414062 4.023438 16.808594 4.222656 C 12.746094 6.234375 8.601562 7.890625 4.105469 8.40625 C 3.511719 8.484375 2.917969 8.484375 2.328125 8.40625 C 1.339844 8.246094 1.105469 7.773438 1.617188 6.90625 Z M 1.617188 6.90625" transform="translate(183.832 203.342)"/></g></g></g><g><g><g><path d="M 25.449219 -7.457031 C 25.292969 -7.457031 25.132812 -7.378906 25.015625 -7.339844 C 23.476562 -6.589844 21.9375 -5.800781 20.476562 -4.933594 C 18.425781 -3.667969 16.375 -2.40625 14.164062 -1.339844 C 13.058594 -0.828125 11.917969 -0.238281 10.691406 -0.0390625 C 9.390625 0.15625 9.113281 -0.117188 9.234375 -1.382812 C 9.234375 -1.460938 9.234375 -1.578125 9.234375 -1.65625 C 9.390625 -2.644531 9.707031 -3.550781 10.140625 -4.417969 C 10.734375 -5.683594 11.363281 -6.90625 11.996094 -8.128906 C 12.3125 -8.757812 12.546875 -9.390625 12.746094 -10.0625 C 12.980469 -10.96875 12.625 -11.679688 11.957031 -12.269531 C 11.285156 -12.824219 10.652344 -12.585938 10.023438 -12.230469 C 9.3125 -11.835938 8.71875 -11.324219 8.128906 -10.773438 C 5.996094 -8.878906 3.984375 -6.867188 2.011719 -4.851562 C 1.65625 -4.457031 1.300781 -4.105469 0.671875 -3.945312 C 0.710938 -4.5 0.90625 -4.933594 1.105469 -5.367188 C 1.617188 -6.511719 2.289062 -7.574219 3 -8.601562 C 3.667969 -9.46875 3.472656 -10.257812 2.605469 -10.8125 C 2.210938 -11.046875 1.894531 -11.046875 1.578125 -10.734375 C -0.078125 -9.113281 -1.105469 -7.222656 -1.027344 -4.8125 C -0.988281 -4.0625 -0.710938 -3.433594 -0.238281 -2.878906 C 0.316406 -2.25 0.828125 -2.171875 1.5 -2.683594 C 1.777344 -2.878906 2.050781 -3.078125 2.289062 -3.3125 C 4.222656 -5.246094 6.035156 -7.339844 8.128906 -9.113281 C 8.996094 -9.863281 9.824219 -10.574219 11.128906 -11.007812 C 10.613281 -9.746094 9.941406 -8.757812 9.351562 -7.773438 C 8.246094 -5.878906 7.773438 -3.867188 7.96875 -1.734375 C 8.128906 0.078125 9.507812 1.695312 11.835938 0.867188 C 13.140625 0.394531 14.402344 -0.15625 15.585938 -0.828125 C 17.875 -2.050781 20.003906 -3.433594 22.214844 -4.734375 C 23.359375 -5.367188 24.464844 -5.996094 25.570312 -6.628906 C 25.726562 -6.746094 26.003906 -6.785156 25.921875 -7.101562 C 25.84375 -7.300781 25.6875 -7.457031 25.449219 -7.457031 Z M 25.449219 -7.457031" transform="translate(232.009 203.342)"/></g></g></g><g><g><g><path d="M -1.144531 17.558594 C 0.199219 14.441406 1.539062 11.324219 2.839844 8.207031 C 3.039062 7.695312 3.273438 7.535156 3.789062 7.65625 C 5.011719 7.929688 6.195312 8.128906 7.417969 8.324219 C 8.128906 8.445312 8.839844 8.523438 9.589844 8.601562 C 9.746094 8.601562 9.984375 8.640625 10.023438 8.40625 C 10.101562 8.207031 9.863281 8.128906 9.746094 8.011719 C 9.667969 7.96875 9.628906 7.929688 9.589844 7.929688 C 8.089844 7.378906 6.589844 6.785156 5.011719 6.628906 C 3.550781 6.429688 3.472656 6.589844 4.183594 5.050781 C 5.484375 2.210938 6.867188 -0.632812 8.324219 -3.433594 C 9.589844 -5.839844 10.96875 -8.167969 12.507812 -10.417969 C 12.785156 -10.851562 13.140625 -11.246094 13.453125 -11.679688 C 13.535156 -11.796875 13.652344 -11.957031 13.453125 -12.152344 C 13.058594 -12.507812 11.71875 -12.664062 11.246094 -12.351562 C 10.613281 -11.917969 10.023438 -11.480469 9.429688 -10.96875 C 9.074219 -10.691406 8.839844 -10.613281 8.445312 -10.96875 C 7.417969 -11.71875 6.273438 -11.957031 5.050781 -11.5625 C 4.378906 -11.363281 3.75 -11.085938 3.15625 -10.652344 C 1.027344 -9.152344 -0.632812 -7.222656 -1.855469 -4.894531 C -2.367188 -3.867188 -2.878906 -2.800781 -2.878906 -1.617188 C -2.917969 -0.199219 -1.539062 0.671875 -0.277344 0 C 0.078125 -0.199219 0.433594 -0.433594 0.75 -0.710938 C 2.445312 -2.289062 4.0625 -3.984375 5.683594 -5.640625 C 6.472656 -6.390625 7.179688 -7.140625 8.128906 -7.695312 C 8.089844 -7.179688 7.734375 -6.824219 7.496094 -6.390625 C 5.207031 -2.644531 3.3125 1.339844 1.578125 5.367188 C 1.300781 6.078125 1.300781 6.078125 0.511719 5.996094 C -0.945312 5.878906 -2.40625 5.839844 -3.867188 5.957031 C -7.890625 6.3125 -11.679688 7.378906 -15.308594 9.074219 C -20.519531 11.523438 -25.132812 14.757812 -28.84375 19.214844 C -31.011719 21.859375 -32.75 24.699219 -33.460938 28.132812 C -34.089844 31.09375 -34.171875 33.972656 -33.144531 36.8125 C -32.511719 38.550781 -31.722656 40.207031 -30.105469 41.3125 C -26.792969 43.523438 -23.242188 43.875 -19.53125 42.417969 C -17.046875 41.46875 -14.992188 39.851562 -13.140625 37.957031 C -9.863281 34.683594 -7.535156 30.816406 -5.367188 26.792969 C -3.75 23.832031 -2.484375 20.636719 -1.144531 17.558594 Z M 7.574219 -9.46875 C 5.050781 -7.261719 2.960938 -4.617188 0.550781 -2.289062 C 0.078125 -1.855469 -0.355469 -1.421875 -1.027344 -1.027344 C -1.144531 -1.65625 -0.90625 -2.050781 -0.710938 -2.484375 C 0.199219 -4.578125 1.617188 -6.3125 3.3125 -7.851562 C 4.222656 -8.757812 5.246094 -9.507812 6.429688 -10.023438 C 6.707031 -10.140625 6.984375 -10.257812 7.300781 -10.257812 C 7.535156 -10.21875 7.734375 -10.101562 7.8125 -9.902344 C 7.929688 -9.667969 7.734375 -9.589844 7.574219 -9.46875 Z M -12.269531 34.089844 C -13.847656 36.339844 -15.664062 38.351562 -17.875 39.96875 C -19.769531 41.390625 -21.898438 42.257812 -24.304688 42.378906 C -25.882812 42.417969 -27.34375 42.0625 -28.6875 41.273438 C -29.988281 40.484375 -30.699219 39.222656 -31.289062 37.917969 C -32.117188 36.183594 -32.511719 34.328125 -32.433594 32.472656 C -32.394531 27.777344 -30.617188 23.832031 -27.699219 20.28125 C -23.910156 15.703125 -19.175781 12.46875 -13.808594 10.101562 C -10.140625 8.445312 -6.3125 7.300781 -2.25 7.222656 C -1.421875 7.179688 -0.632812 7.179688 0.15625 7.261719 C 0.671875 7.300781 0.75 7.417969 0.550781 7.890625 C 0.238281 8.640625 -0.078125 9.351562 -0.394531 10.101562 C -2.050781 13.929688 -3.667969 17.796875 -5.367188 21.582031 C -7.339844 25.921875 -9.546875 30.183594 -12.269531 34.089844 Z M -12.269531 34.089844" transform="translate(256.867 203.342)"/></g></g></g><g><g><g><path d="M 2.761719 -1.261719 C 2.839844 -0.433594 2.960938 0.394531 3.355469 1.144531 C 4.695312 3.667969 7.378906 4.222656 9.628906 3.273438 C 14.164062 1.339844 22.6875 -6.117188 27.582031 -6.707031 C 27.542969 -6.867188 27.542969 -6.945312 27.5 -6.984375 C 26.160156 -8.484375 14.046875 -0.15625 10.0625 1.777344 C 9.035156 2.289062 8.011719 2.722656 6.824219 2.722656 C 6.234375 2.683594 5.839844 2.445312 5.601562 1.894531 C 5.367188 1.339844 5.246094 0.75 5.246094 0.117188 C 5.207031 -1.300781 5.484375 -2.644531 6.035156 -3.984375 C 6.472656 -5.089844 7.140625 -6.078125 7.734375 -7.101562 C 8.167969 -7.929688 8.089844 -8.207031 7.261719 -8.601562 C 7.023438 -8.71875 6.785156 -8.878906 6.550781 -8.800781 C 6.117188 -8.640625 5.878906 -8.878906 5.5625 -9.074219 C 4.378906 -9.746094 3.195312 -9.902344 2.011719 -9.152344 C -0.828125 -7.378906 -2.128906 -4.695312 -2.050781 -1.421875 C -2.050781 -0.316406 -0.789062 0.316406 0.238281 -0.15625 C 0.632812 -0.355469 0.988281 -0.632812 1.261719 -0.945312 C 1.695312 -1.339844 2.128906 -1.777344 2.605469 -2.25 C 2.761719 -1.855469 2.722656 -1.539062 2.761719 -1.261719 Z M 0.550781 -1.734375 C 0.277344 -1.5 -0.0390625 -1.300781 -0.472656 -0.988281 C -0.472656 -1.855469 -0.316406 -2.484375 -0.078125 -3.039062 C 0.632812 -4.851562 1.65625 -6.390625 3.15625 -7.65625 C 3.433594 -7.890625 3.789062 -8.050781 4.105469 -8.246094 C 4.300781 -8.363281 4.578125 -8.40625 4.734375 -8.128906 C 4.894531 -7.890625 5.050781 -7.695312 4.851562 -7.378906 C 3.589844 -5.367188 2.367188 -3.3125 0.550781 -1.734375 Z M 4.933594 -12.824219 C 5.089844 -12.785156 5.367188 -12.902344 5.601562 -13.140625 C 6.589844 -14.203125 7.574219 -15.230469 8.757812 -16.058594 C 9.195312 -16.375 9.074219 -16.652344 8.601562 -16.808594 C 7.96875 -17.007812 7.417969 -16.808594 6.945312 -16.453125 C 5.917969 -15.703125 5.089844 -14.835938 4.261719 -13.929688 C 4.0625 -13.730469 3.789062 -13.496094 3.90625 -13.21875 C 4.023438 -12.902344 4.417969 -12.863281 4.933594 -12.824219 Z M 4.933594 -12.824219" transform="translate(275.017 203.342)"/></g></g></g><g><g><g><path d="M 0.96875 0 L 0.96875 -7.671875 L 3.5625 -7.671875 C 4.175781 -7.671875 4.710938 -7.570312 5.171875 -7.375 C 5.628906 -7.175781 6.007812 -6.898438 6.3125 -6.546875 C 6.625 -6.203125 6.859375 -5.796875 7.015625 -5.328125 C 7.171875 -4.867188 7.25 -4.375 7.25 -3.84375 C 7.25 -3.257812 7.160156 -2.734375 6.984375 -2.265625 C 6.804688 -1.796875 6.554688 -1.390625 6.234375 -1.046875 C 5.921875 -0.710938 5.535156 -0.453125 5.078125 -0.265625 C 4.628906 -0.0859375 4.125 0 3.5625 0 Z M 6.484375 -3.84375 C 6.484375 -4.3125 6.414062 -4.738281 6.28125 -5.125 C 6.15625 -5.507812 5.96875 -5.84375 5.71875 -6.125 C 5.476562 -6.40625 5.175781 -6.617188 4.8125 -6.765625 C 4.445312 -6.921875 4.03125 -7 3.5625 -7 L 1.71875 -7 L 1.71875 -0.671875 L 3.5625 -0.671875 C 4.039062 -0.671875 4.460938 -0.75 4.828125 -0.90625 C 5.191406 -1.070312 5.492188 -1.296875 5.734375 -1.578125 C 5.984375 -1.867188 6.171875 -2.207031 6.296875 -2.59375 C 6.421875 -2.976562 6.484375 -3.394531 6.484375 -3.84375 Z M 6.484375 -3.84375" transform="translate(136.668 241.798)"/></g></g></g><g><g><g><path d="M 6.125 -0.671875 L 6.125 0 L 0.96875 0 L 0.96875 -7.671875 L 6.015625 -7.671875 L 6.015625 -7 L 1.71875 -7 L 1.71875 -4.234375 L 5.46875 -4.234375 L 5.46875 -3.59375 L 1.71875 -3.59375 L 1.71875 -0.671875 Z M 6.125 -0.671875" transform="translate(148.727 241.798)"/></g></g></g><g><g><g><path d="M 0.453125 -3.890625 C 0.453125 -4.347656 0.53125 -4.804688 0.6875 -5.265625 C 0.851562 -5.722656 1.09375 -6.128906 1.40625 -6.484375 C 1.71875 -6.847656 2.097656 -7.144531 2.546875 -7.375 C 3.003906 -7.601562 3.519531 -7.71875 4.09375 -7.71875 C 4.78125 -7.71875 5.363281 -7.5625 5.84375 -7.25 C 6.332031 -6.945312 6.695312 -6.546875 6.9375 -6.046875 L 6.34375 -5.671875 C 6.21875 -5.929688 6.066406 -6.144531 5.890625 -6.3125 C 5.710938 -6.488281 5.519531 -6.628906 5.3125 -6.734375 C 5.113281 -6.835938 4.90625 -6.910156 4.6875 -6.953125 C 4.476562 -7.003906 4.269531 -7.03125 4.0625 -7.03125 C 3.59375 -7.03125 3.179688 -6.9375 2.828125 -6.75 C 2.472656 -6.570312 2.175781 -6.328125 1.9375 -6.015625 C 1.695312 -5.710938 1.515625 -5.375 1.390625 -5 C 1.273438 -4.625 1.21875 -4.238281 1.21875 -3.84375 C 1.21875 -3.425781 1.289062 -3.019531 1.4375 -2.625 C 1.582031 -2.238281 1.78125 -1.894531 2.03125 -1.59375 C 2.289062 -1.289062 2.59375 -1.050781 2.9375 -0.875 C 3.289062 -0.695312 3.675781 -0.609375 4.09375 -0.609375 C 4.300781 -0.609375 4.519531 -0.632812 4.75 -0.6875 C 4.976562 -0.75 5.195312 -0.835938 5.40625 -0.953125 C 5.625 -1.078125 5.820312 -1.226562 6 -1.40625 C 6.175781 -1.582031 6.328125 -1.796875 6.453125 -2.046875 L 7.078125 -1.71875 C 6.953125 -1.425781 6.78125 -1.171875 6.5625 -0.953125 C 6.34375 -0.734375 6.09375 -0.546875 5.8125 -0.390625 C 5.539062 -0.242188 5.25 -0.128906 4.9375 -0.046875 C 4.632812 0.0234375 4.335938 0.0625 4.046875 0.0625 C 3.515625 0.0625 3.03125 -0.0507812 2.59375 -0.28125 C 2.15625 -0.507812 1.773438 -0.804688 1.453125 -1.171875 C 1.140625 -1.546875 0.894531 -1.96875 0.71875 -2.4375 C 0.539062 -2.914062 0.453125 -3.398438 0.453125 -3.890625 Z M 0.453125 -3.890625" transform="translate(159.639 241.798)"/></g></g></g><g><g><g><path d="M 4.0625 0.046875 C 3.519531 0.046875 3.023438 -0.0625 2.578125 -0.28125 C 2.140625 -0.5 1.757812 -0.789062 1.4375 -1.15625 C 1.125 -1.519531 0.878906 -1.9375 0.703125 -2.40625 C 0.535156 -2.875 0.453125 -3.351562 0.453125 -3.84375 C 0.453125 -4.351562 0.539062 -4.84375 0.71875 -5.3125 C 0.90625 -5.78125 1.160156 -6.191406 1.484375 -6.546875 C 1.816406 -6.910156 2.203125 -7.195312 2.640625 -7.40625 C 3.078125 -7.625 3.550781 -7.734375 4.0625 -7.734375 C 4.59375 -7.734375 5.082031 -7.617188 5.53125 -7.390625 C 5.976562 -7.160156 6.359375 -6.863281 6.671875 -6.5 C 6.984375 -6.132812 7.222656 -5.71875 7.390625 -5.25 C 7.566406 -4.78125 7.65625 -4.304688 7.65625 -3.828125 C 7.65625 -3.316406 7.5625 -2.828125 7.375 -2.359375 C 7.195312 -1.890625 6.945312 -1.472656 6.625 -1.109375 C 6.300781 -0.753906 5.921875 -0.472656 5.484375 -0.265625 C 5.046875 -0.0546875 4.570312 0.046875 4.0625 0.046875 Z M 1.21875 -3.84375 C 1.21875 -3.425781 1.285156 -3.019531 1.421875 -2.625 C 1.554688 -2.238281 1.75 -1.894531 2 -1.59375 C 2.25 -1.300781 2.546875 -1.066406 2.890625 -0.890625 C 3.242188 -0.710938 3.632812 -0.625 4.0625 -0.625 C 4.488281 -0.625 4.878906 -0.71875 5.234375 -0.90625 C 5.585938 -1.09375 5.882812 -1.335938 6.125 -1.640625 C 6.375 -1.941406 6.5625 -2.285156 6.6875 -2.671875 C 6.820312 -3.054688 6.890625 -3.445312 6.890625 -3.84375 C 6.890625 -4.257812 6.820312 -4.660156 6.6875 -5.046875 C 6.550781 -5.429688 6.351562 -5.769531 6.09375 -6.0625 C 5.84375 -6.363281 5.546875 -6.597656 5.203125 -6.765625 C 4.859375 -6.941406 4.476562 -7.03125 4.0625 -7.03125 C 3.625 -7.03125 3.226562 -6.9375 2.875 -6.75 C 2.519531 -6.570312 2.21875 -6.332031 1.96875 -6.03125 C 1.726562 -5.726562 1.539062 -5.382812 1.40625 -5 C 1.28125 -4.625 1.21875 -4.238281 1.21875 -3.84375 Z M 1.21875 -3.84375" transform="translate(171.384 241.798)"/></g></g></g><g><g><g><path d="M 0.96875 0 L 0.96875 -7.671875 L 4.203125 -7.671875 C 4.535156 -7.671875 4.835938 -7.597656 5.109375 -7.453125 C 5.390625 -7.316406 5.628906 -7.132812 5.828125 -6.90625 C 6.035156 -6.6875 6.195312 -6.429688 6.3125 -6.140625 C 6.425781 -5.847656 6.484375 -5.554688 6.484375 -5.265625 C 6.484375 -4.984375 6.441406 -4.710938 6.359375 -4.453125 C 6.273438 -4.203125 6.15625 -3.972656 6 -3.765625 C 5.851562 -3.554688 5.675781 -3.378906 5.46875 -3.234375 C 5.257812 -3.097656 5.023438 -3.007812 4.765625 -2.96875 L 6.65625 0 L 5.796875 0 L 3.984375 -2.828125 L 1.71875 -2.828125 L 1.71875 0 Z M 1.71875 -3.5 L 4.234375 -3.5 C 4.453125 -3.5 4.648438 -3.546875 4.828125 -3.640625 C 5.015625 -3.742188 5.171875 -3.878906 5.296875 -4.046875 C 5.429688 -4.210938 5.535156 -4.398438 5.609375 -4.609375 C 5.679688 -4.816406 5.71875 -5.035156 5.71875 -5.265625 C 5.71875 -5.492188 5.675781 -5.710938 5.59375 -5.921875 C 5.507812 -6.140625 5.394531 -6.328125 5.25 -6.484375 C 5.113281 -6.640625 4.945312 -6.765625 4.75 -6.859375 C 4.5625 -6.953125 4.363281 -7 4.15625 -7 L 1.71875 -7 Z M 1.71875 -3.5" transform="translate(183.832 241.798)"/></g></g></g><g><g><g><path d="M 3.34375 -7.671875 L 3.984375 -7.671875 L 7.171875 0 L 6.375 0 L 5.375 -2.40625 L 1.921875 -2.40625 L 0.9375 0 L 0.125 0 Z M 5.203125 -3 L 3.65625 -6.796875 L 2.09375 -3 Z M 5.203125 -3" transform="translate(195.22 241.798)"/></g></g></g><g><g><g><path d="M 3.171875 1.359375 C 3.273438 1.410156 3.410156 1.457031 3.578125 1.5 C 3.753906 1.539062 3.9375 1.5625 4.125 1.5625 C 4.539062 1.5625 4.75 1.429688 4.75 1.171875 C 4.75 1.035156 4.695312 0.9375 4.59375 0.875 C 4.5 0.820312 4.367188 0.796875 4.203125 0.796875 C 4.054688 0.796875 3.898438 0.8125 3.734375 0.84375 C 3.566406 0.875 3.4375 0.90625 3.34375 0.9375 L 3.8125 0.046875 C 3.320312 0.0234375 2.863281 -0.101562 2.4375 -0.34375 C 2.019531 -0.582031 1.660156 -0.882812 1.359375 -1.25 C 1.066406 -1.625 0.835938 -2.035156 0.671875 -2.484375 C 0.503906 -2.941406 0.421875 -3.410156 0.421875 -3.890625 C 0.421875 -4.347656 0.5 -4.804688 0.65625 -5.265625 C 0.820312 -5.722656 1.0625 -6.128906 1.375 -6.484375 C 1.6875 -6.847656 2.066406 -7.144531 2.515625 -7.375 C 2.972656 -7.601562 3.488281 -7.71875 4.0625 -7.71875 C 4.75 -7.71875 5.332031 -7.5625 5.8125 -7.25 C 6.300781 -6.945312 6.660156 -6.546875 6.890625 -6.046875 L 6.296875 -5.671875 C 6.179688 -5.929688 6.035156 -6.144531 5.859375 -6.3125 C 5.679688 -6.488281 5.488281 -6.628906 5.28125 -6.734375 C 5.082031 -6.835938 4.875 -6.910156 4.65625 -6.953125 C 4.4375 -7.003906 4.222656 -7.03125 4.015625 -7.03125 C 3.554688 -7.03125 3.148438 -6.9375 2.796875 -6.75 C 2.441406 -6.570312 2.144531 -6.328125 1.90625 -6.015625 C 1.664062 -5.710938 1.484375 -5.375 1.359375 -5 C 1.234375 -4.625 1.171875 -4.238281 1.171875 -3.84375 C 1.171875 -3.425781 1.242188 -3.019531 1.390625 -2.625 C 1.546875 -2.238281 1.75 -1.894531 2 -1.59375 C 2.257812 -1.289062 2.5625 -1.050781 2.90625 -0.875 C 3.257812 -0.695312 3.644531 -0.609375 4.0625 -0.609375 C 4.269531 -0.609375 4.488281 -0.632812 4.71875 -0.6875 C 4.945312 -0.75 5.164062 -0.835938 5.375 -0.953125 C 5.59375 -1.078125 5.789062 -1.226562 5.96875 -1.40625 C 6.144531 -1.582031 6.296875 -1.796875 6.421875 -2.046875 L 7.046875 -1.71875 C 6.929688 -1.445312 6.769531 -1.207031 6.5625 -1 C 6.363281 -0.789062 6.140625 -0.609375 5.890625 -0.453125 C 5.640625 -0.304688 5.367188 -0.191406 5.078125 -0.109375 C 4.796875 -0.0234375 4.515625 0.0234375 4.234375 0.046875 L 3.9375 0.546875 C 4 0.523438 4.066406 0.507812 4.140625 0.5 C 4.222656 0.488281 4.289062 0.484375 4.34375 0.484375 C 4.59375 0.484375 4.789062 0.539062 4.9375 0.65625 C 5.09375 0.769531 5.171875 0.929688 5.171875 1.140625 C 5.171875 1.390625 5.078125 1.578125 4.890625 1.703125 C 4.703125 1.835938 4.425781 1.90625 4.0625 1.90625 C 3.851562 1.90625 3.660156 1.882812 3.484375 1.84375 C 3.304688 1.800781 3.144531 1.753906 3 1.703125 Z M 3.171875 1.359375" transform="translate(206.857 241.798)"/></g></g></g><g><g><g><path d="M 3.34375 -7.671875 L 3.984375 -7.671875 L 7.171875 0 L 6.375 0 L 5.375 -2.40625 L 1.921875 -2.40625 L 0.9375 0 L 0.125 0 Z M 5.203125 -3 L 3.65625 -6.796875 L 2.09375 -3 Z M 4.328125 -8.921875 C 4.160156 -8.921875 4.015625 -8.941406 3.890625 -8.984375 C 3.773438 -9.023438 3.664062 -9.070312 3.5625 -9.125 C 3.457031 -9.1875 3.351562 -9.238281 3.25 -9.28125 C 3.15625 -9.332031 3.050781 -9.359375 2.9375 -9.359375 C 2.8125 -9.359375 2.710938 -9.332031 2.640625 -9.28125 C 2.578125 -9.226562 2.523438 -9.171875 2.484375 -9.109375 C 2.453125 -9.046875 2.429688 -8.988281 2.421875 -8.9375 C 2.410156 -8.882812 2.40625 -8.847656 2.40625 -8.828125 L 1.953125 -8.828125 C 1.953125 -8.867188 1.960938 -8.941406 1.984375 -9.046875 C 2.003906 -9.160156 2.050781 -9.273438 2.125 -9.390625 C 2.195312 -9.503906 2.296875 -9.609375 2.421875 -9.703125 C 2.554688 -9.796875 2.726562 -9.84375 2.9375 -9.84375 C 3.082031 -9.84375 3.210938 -9.816406 3.328125 -9.765625 C 3.441406 -9.722656 3.546875 -9.671875 3.640625 -9.609375 C 3.742188 -9.554688 3.847656 -9.503906 3.953125 -9.453125 C 4.054688 -9.410156 4.175781 -9.390625 4.3125 -9.390625 C 4.445312 -9.390625 4.554688 -9.410156 4.640625 -9.453125 C 4.722656 -9.503906 4.785156 -9.5625 4.828125 -9.625 C 4.867188 -9.695312 4.894531 -9.757812 4.90625 -9.8125 C 4.925781 -9.863281 4.9375 -9.898438 4.9375 -9.921875 L 5.390625 -9.921875 C 5.390625 -9.878906 5.375 -9.800781 5.34375 -9.6875 C 5.3125 -9.582031 5.257812 -9.472656 5.1875 -9.359375 C 5.113281 -9.242188 5.003906 -9.140625 4.859375 -9.046875 C 4.722656 -8.960938 4.546875 -8.921875 4.328125 -8.921875 Z M 4.328125 -8.921875" transform="translate(218.57 241.798)"/></g></g></g></svg>